<svg fill="#45B0E3" xmlns="http://www.w3.org/2000/svg" viewBox="0 0 34 34"><circle cx="17" cy="17" r="16" style="fill:none;stroke:#45b0e3;stroke-miterlimit:10;stroke-width:2px"/><path d="M21.5 21.6v.12a1.42 1.42 0 0 1-.3.82 1.44 1.44 0 0 1-1.06.62h-3.59a3.91 3.91 0 0 1-1.5-.42A4.79 4.79 0 0 1 13 20.69a4.57 4.57 0 0 1-.49-2v-6.44a1.52 1.52 0 0 1 1.38-1.45h.27a1.09 1.09 0 0 1 .26 0 1.54 1.54 0 0 1 .94.79 1.57 1.57 0 0 1 .16.74v1.43c0 .1 0 .1.1.1H20a1.55 1.55 0 0 1 1.49 1.3.57.57 0 0 0 0 .18v.17a.47.47 0 0 0 0 .17A1.54 1.54 0 0 1 20 17h-4.39c-.07 0-.09 0-.09.09v1.32a2.48 2.48 0 0 0 0 .38A1.5 1.5 0 0 0 17 20.1h3.24a1.56 1.56 0 0 1 1.27 1.29.64.64 0 0 0-.01.21Z"/></svg>