<?xml version="1.0" ?><svg fill="none" height="24" viewBox="0 0 24 24" width="24" xmlns="http://www.w3.org/2000/svg"><g id="Love"><path clip-rule="evenodd" d="M12 1.75C6.33908 1.75 1.75 6.33908 1.75 12C1.75 17.6609 6.33908 22.25 12 22.25C17.6609 22.25 22.25 17.6609 22.25 12C22.25 6.33908 17.6609 1.75 12 1.75ZM0.25 12C0.25 5.51065 5.51065 0.25 12 0.25C18.4893 0.25 23.75 5.51065 23.75 12C23.75 18.4893 18.4893 23.75 12 23.75C5.51065 23.75 0.25 18.4893 0.25 12Z" fill="black" fill-rule="evenodd" id="Ellipse 16 (Stroke)"/><path clip-rule="evenodd" d="M9.2575 8.12354C8.50483 8.04629 7.82384 8.23679 7.29956 8.76108C6.14749 9.91315 6.06864 11.7332 7.06383 12.9758C7.08655 13.0041 7.1069 13.0337 7.12488 13.0642L12 17.9393L16.8751 13.0642C16.8931 13.0337 16.9135 13.0041 16.9362 12.9758C17.9314 11.7332 17.8525 9.91315 16.7004 8.76108C16.1762 8.23679 15.4952 8.04629 14.7425 8.12354C13.9751 8.2023 13.1608 8.56164 12.4858 9.10227C12.3433 9.21634 12.1708 9.27057 12 9.26669C11.8292 9.27056 11.6567 9.21634 11.5143 9.10227C10.8392 8.56164 10.0249 8.2023 9.2575 8.12354ZM12 7.60082C11.2261 7.08469 10.3249 6.72521 9.41064 6.63138C8.29714 6.51709 7.14002 6.7993 6.2389 7.70042C4.58875 9.35057 4.43303 11.9281 5.771 13.7542C5.80827 13.8421 5.86236 13.923 5.93121 13.9918L11.4697 19.5303C11.7626 19.8232 12.2374 19.8232 12.5303 19.5303L18.0688 13.9918C18.1376 13.923 18.1917 13.8421 18.229 13.7542C19.567 11.9281 19.4113 9.35057 17.7611 7.70042C16.86 6.7993 15.7029 6.51709 14.5894 6.63138C13.6751 6.72521 12.7739 7.08469 12 7.60082Z" fill="black" fill-rule="evenodd" id="Union (Stroke)"/></g></svg>